<svg width="48" height="48" viewBox="0 0 48 48" fill="none" xmlns="http://www.w3.org/2000/svg">
<path d="M17.8564 23.0201V22.9832" stroke="black" stroke-width="4.90182" stroke-linecap="round"/>
<path d="M28.6447 22.7778V22.8142" stroke="black" stroke-width="4.90182" stroke-linecap="round"/>
<path d="M18.8334 28.8859C18.9777 28.9748 19.3852 29.2523 19.8579 29.5197C20.2783 29.7574 20.9996 29.8948 21.851 30.0476C23.4009 30.3257 24.2713 30.0108 24.8138 29.9007C25.4753 29.7666 26.3446 29.4909 26.9859 29.2275C27.0845 29.1636 27.1909 29.0797 27.2816 29.0149C27.3722 28.9501 27.4439 28.907 27.5784 28.8626" stroke="black" stroke-width="2.45091" stroke-linecap="round"/>
<path d="M17.5083 16.2401C17.7545 15.8844 20.3019 13.1961 22.0078 11.3291C23.4459 9.75527 24.1156 8.58773 25.2452 7.6719C25.5178 7.45089 25.7896 7.22234 25.9818 7.18805C26.8321 7.03635 27.1376 9.30504 27.6139 10.3368C28.2178 11.645 28.4339 12.4622 28.8817 13.4829C29.462 14.5584 30.1137 15.8393 30.5937 16.9051C30.6973 17.1274 30.8248 17.3464 30.9495 17.5097" stroke="black" stroke-width="2.45091" stroke-linecap="round"/>
<path d="M14.4947 17.2072C14.114 17.158 13.2269 17.1139 12.0783 16.968C9.67021 16.662 6.41134 16.5904 4.36565 16.6278C3.01022 16.6526 5.81725 19.3584 6.3942 20.161C7.31317 21.4394 8.2425 22.9038 8.99779 23.9612C9.60224 24.8028 10.1075 25.2965 10.5292 25.6915C10.7245 25.8719 10.882 26.0115 11.2374 26.543" stroke="black" stroke-width="2.45091" stroke-linecap="round"/>
<path d="M12.731 30.55C12.0444 31.7913 11.1764 34.1831 10.7008 35.7902C10.4311 36.7015 10.0966 37.5719 9.69437 38.376C9.58362 38.5974 9.48943 38.8676 9.55125 38.9724C10.0904 39.8868 12.2993 38.2419 13.5658 37.8139C15.2959 37.2291 17.0968 36.3021 18.1004 35.747C18.5645 35.5328 19.0765 35.4093 19.5873 35.3496C19.8319 35.3101 20.0465 35.2517 20.7876 35.074" stroke="black" stroke-width="2.45091" stroke-linecap="round"/>
<path d="M24.2476 35.4896C25.4355 36.4644 29.3528 39.1366 31.3255 40.1615C31.9958 40.5097 32.5593 40.7058 32.9509 40.8083C33.1375 40.857 33.3233 40.7464 33.4248 40.3981C33.9845 38.4792 33.2813 36.6367 33.2011 35.5011C33.108 34.348 33.0004 33.5121 32.9488 33.0994C32.9192 32.8982 32.8829 32.7138 32.747 32.2176" stroke="black" stroke-width="2.45091" stroke-linecap="round"/>
<path d="M36.1182 29.4354C37.0253 28.6752 39.4822 27.3174 40.9384 26.5072C42.3444 25.7248 42.944 24.9498 43.668 24.4717C43.836 24.3607 43.9634 24.2051 43.991 24.0495C44.17 23.0389 41.6315 22.3854 40.6672 21.9749C40.0923 21.7676 37.9693 21.1905 35.149 20.4658C34.1189 20.2067 33.9032 20.1684 33.3146 20.0798" stroke="black" stroke-width="2.45091" stroke-linecap="round"/>
</svg>